<?xml version="1.0" encoding="utf-8"?>
<!-- Generator: Adobe Illustrator 21.0.0, SVG Export Plug-In . SVG Version: 6.00 Build 0)  -->
<svg version="1.1" id="Layer_1" xmlns="http://www.w3.org/2000/svg" xmlns:xlink="http://www.w3.org/1999/xlink" x="0px" y="0px"
	 viewBox="0 0 1000.2 1000.1" style="enable-background:new 0 0 1000.2 1000.1;" xml:space="preserve">
<style type="text/css">
	.st0{fill:#CE206F;}
	.st1{fill:#FFFFFF;}
</style>
<g>
	<g>
		<g>
			<path class="st0" d="M500,0c276.1,0,500,223.9,500,500s-223.9,500-500,500S0,776.1,0,500S223.9,0,500,0L500,0z"/>
		</g>
	</g>
</g>
<path class="st1" d="M821.8,280.8c-14-12.4-29.6-21.8-48.2-24.9c-23.3-3.1-46.7,12.4-62.2,23.3s-46.7,38.9-59.1,49.8
	c-12.4,10.9-43.6,17.1-94.9,48.2S306.8,536,306.8,536h51.3L126.3,655.8h23.3L117,680.7c18.7,4.7,37.3,1.6,54.5-7.8v7.8
	c0,0,275.4-108.9,328.3-80.9l-32.7,9.3c3.1,0,54.5,3.1,54.5,3.1c3.1,21.8,15.6,42,34.2,52.9c31.1,20.2,32.7,32.7,32.7,32.7
	s-15.6,6.2-15.6,15.6c29.6-9.3,60.7-9.3,88.7,0c0,0-1.6-9.3-23.3-15.6c-21.8-9.3-40.5-23.3-54.5-43.6c-12.4-17.1-17.1-38.9-9.3-59.1
	c7.8-20.2,34.2-31.1,88.7-59.1c63.8-32.7,79.3-57.6,87.1-77.8c7.8-20.2,23.3-57.6,29.6-76.2c6.2-17.1,17.1-31.1,31.1-43.6
	c17.1-9.3,35.8-17.1,52.9-23.3C866.9,316.6,832.7,288.6,821.8,280.8z"/>
</svg>
